<svg xmlns="http://www.w3.org/2000/svg" viewBox="0 0 32 32" fill="none">
  <defs>
    <radialGradient id="medallion" cx="32%" cy="22%" r="78%">
      <stop stop-color="#ffffff"/>
      <stop offset="0.45" stop-color="#eef3fc"/>
      <stop offset="1" stop-color="#d4e2f6"/>
    </radialGradient>
    <radialGradient id="aura" cx="50%" cy="42%" r="52%">
      <stop stop-color="#8eb4ea" stop-opacity="0.72"/>
      <stop offset="0.55" stop-color="#6b93d4" stop-opacity="0.28"/>
      <stop offset="1" stop-color="#6b93d4" stop-opacity="0"/>
    </radialGradient>
    <linearGradient id="ring" x1="4" y1="4" x2="28" y2="28" gradientUnits="userSpaceOnUse">
      <stop stop-color="#b8cff0"/>
      <stop offset="0.35" stop-color="#6b93d4"/>
      <stop offset="0.65" stop-color="#ffffff" stop-opacity="0.85"/>
      <stop offset="1" stop-color="#8fafe8"/>
    </linearGradient>
    <linearGradient id="f1" x1="16" y1="4" x2="16" y2="16" gradientUnits="userSpaceOnUse">
      <stop stop-color="#dce9fb"/>
      <stop offset="0.45" stop-color="#8fafe8"/>
      <stop offset="1" stop-color="#2a3142"/>
    </linearGradient>
    <linearGradient id="f2" x1="27" y1="13" x2="16" y2="16" gradientUnits="userSpaceOnUse">
      <stop stop-color="#c5d8f5"/>
      <stop offset="0.5" stop-color="#6b93d4"/>
      <stop offset="1" stop-color="#243047"/>
    </linearGradient>
    <linearGradient id="f3" x1="16" y1="27" x2="16" y2="16" gradientUnits="userSpaceOnUse">
      <stop stop-color="#a8c4ef"/>
      <stop offset="0.55" stop-color="#5578b8"/>
      <stop offset="1" stop-color="#1e2433"/>
    </linearGradient>
    <linearGradient id="f4" x1="5" y1="13" x2="16" y2="16" gradientUnits="userSpaceOnUse">
      <stop stop-color="#d0dff8"/>
      <stop offset="0.5" stop-color="#7398cf"/>
      <stop offset="1" stop-color="#2a3142"/>
    </linearGradient>
    <radialGradient id="jewel" cx="38%" cy="32%" r="68%">
      <stop stop-color="#ffffff"/>
      <stop stop-color="#b8cff0" offset="0.35"/>
      <stop stop-color="#6b93d4" offset="0.72"/>
      <stop stop-color="#2a3142" offset="1"/>
    </radialGradient>
    <filter id="glow" x="-40%" y="-40%" width="180%" height="180%">
      <feGaussianBlur stdDeviation="1.35" result="blur"/>
      <feMerge>
        <feMergeNode in="blur"/>
        <feMergeNode in="SourceGraphic"/>
      </feMerge>
    </filter>
  </defs>
  <circle cx="16" cy="16" r="15.5" fill="url(#medallion)"/>
  <circle cx="16" cy="16" r="15.5" stroke="url(#ring)" stroke-width="0.65"/>
  <circle cx="16" cy="16.5" r="11.5" fill="url(#aura)" filter="url(#glow)"/>
  <path fill="#6b93d4" fill-opacity="0.16" transform="translate(16 16) scale(1.1) translate(-16 -16)" d="M16 4.2 18.35 12.6 26.8 13.35 19.35 17.6 16 26.2 12.65 17.6 5.2 13.35 13.65 12.6Z"/>
  <path fill="url(#f1)" d="M16 16 13.65 12.6 16 4.2 18.35 12.6Z"/>
  <path fill="url(#f2)" d="M16 16 18.35 12.6 26.8 13.35 19.35 17.6Z"/>
  <path fill="url(#f3)" d="M16 16 19.35 17.6 16 26.2 12.65 17.6Z"/>
  <path fill="url(#f4)" d="M16 16 12.65 17.6 5.2 13.35 13.65 12.6Z"/>
  <path d="M16 4.2 18.35 12.6 26.8 13.35 19.35 17.6 16 26.2 12.65 17.6 5.2 13.35 13.65 12.6Z" stroke="rgba(255,255,255,0.55)" stroke-width="0.35" fill="none"/>
  <path d="M16 6.2 16.55 11.2" stroke="rgba(255,255,255,0.75)" stroke-width="0.55" stroke-linecap="round"/>
  <circle cx="16" cy="16" r="2.35" fill="url(#jewel)"/>
  <circle cx="15.15" cy="15.05" r="0.75" fill="#ffffff" fill-opacity="0.92"/>
  <circle cx="16" cy="4.2" r="0.85" fill="#ffffff" fill-opacity="0.95"/>
  <circle cx="26.8" cy="13.35" r="0.65" fill="#dce9fb" fill-opacity="0.9"/>
  <circle cx="16" cy="26.2" r="0.65" fill="#b8cff0" fill-opacity="0.85"/>
  <circle cx="5.2" cy="13.35" r="0.65" fill="#dce9fb" fill-opacity="0.9"/>
</svg>
